<svg xmlns="http://www.w3.org/2000/svg" viewBox="0 0 512 512" enable-background="new 0 0 512 512"><path fill="#303C42" d="M256 0C114.84 0 0 114.84 0 256s114.84 256 256 256 256-114.84 256-256S397.16 0 256 0z"/><path fill="#E53935" d="M256 21.33c121.5 0 221.72 92.84 233.48 211.3-17.36 3.85-61.46 11.88-127.9 12.6-5.48-53.7-50.45-95.9-105.58-95.9s-100.1 42.2-105.58 95.9c-66.44-.72-110.54-8.75-127.9-12.6C34.28 114.17 134.5 21.33 256 21.33z"/><circle cx="256" cy="256" r="85.333" fill="#455A64"/><path fill="#fff" d="M256 490.67C126.6 490.67 21.33 385.4 21.33 256c0-.6.1-1.17.1-1.77 20.3 4.33 64.22 11.55 128.96 12.26 5.35 53.82 50.38 96.17 105.6 96.17s100.25-42.35 105.6-96.2c64.75-.7 108.67-7.9 128.98-12.24 0 .6.1 1.17.1 1.77 0 129.4-105.28 234.67-234.68 234.67z"/><circle cx="256" cy="256" r="64" fill="#303C42"/><circle cx="256" cy="256" r="42.667" fill="#F2F2F2"/><path fill="#fff" d="M221.78 268.9c0-23.54 19.13-42.68 42.66-42.68 12.22 0 23.17 5.22 30.96 13.48-6.42-15.46-21.65-26.37-39.4-26.37-23.53 0-42.67 19.14-42.67 42.67 0 11.32 4.5 21.55 11.7 29.2-2.07-5.04-3.25-10.54-3.25-16.3z" opacity=".2" enable-background="new"/><linearGradient id="a" x1="-45.578" x2="-23.828" y1="639.555" y2="629.414" gradientUnits="userSpaceOnUse" gradientTransform="matrix(21.333 0 0 -21.333 996.333 13791.667)"><stop offset="0" stop-color="#fff" stop-opacity=".2"/><stop offset="1" stop-color="#fff" stop-opacity="0"/></linearGradient><path fill="url(#a)" d="M256 0C114.84 0 0 114.84 0 256s114.84 256 256 256 256-114.84 256-256S397.16 0 256 0z"/><path d="M444.74 240c21.05-2.56 36.18-5.47 44.74-7.37-5.8-58.4-33.16-110.5-73.9-148.38 20.47 34.8 32.42 75.2 32.42 118.42 0 12.73-1.3 25.14-3.26 37.33zM490.58 254.23c-10.55 2.25-27.6 5.26-50.47 7.75-26.37 100.72-117.9 175.35-226.77 175.35-61.8 0-117.9-24.18-159.86-63.36 40.75 69.67 116.16 116.7 202.53 116.7 129.4 0 234.67-105.27 234.67-234.67 0-.6-.1-1.17-.1-1.77z" opacity=".1" enable-background="new"/></svg>